<mxfile host="app.diagrams.net" agent="Mozilla/5.0 (Windows NT 10.0; Win64; x64) AppleWebKit/537.36 (KHTML, like Gecko) Chrome/136.0.0.0 Safari/537.36" version="27.0.6">
  <diagram name="D. ER CREEPS" id="2a216829-ef6e-dabb-86c1-c78162f3ba2b">
    <mxGraphModel grid="1" page="1" gridSize="10" guides="1" tooltips="1" connect="1" arrows="1" fold="1" pageScale="1" pageWidth="850" pageHeight="1100" background="none" math="0" shadow="0">
      <root>
        <mxCell id="0" />
        <mxCell id="1" parent="0" />
        <mxCell id="KxWiPKZ9fEYdQQgyyWSj-16" value="" style="edgeStyle=orthogonalEdgeStyle;rounded=0;orthogonalLoop=1;jettySize=auto;html=1;endArrow=ERoneToMany;endFill=0;startArrow=none;startFill=0;" edge="1" parent="1" source="KxWiPKZ9fEYdQQgyyWSj-4" target="KxWiPKZ9fEYdQQgyyWSj-15">
          <mxGeometry relative="1" as="geometry" />
        </mxCell>
        <mxCell id="KxWiPKZ9fEYdQQgyyWSj-4" value="Gestionar pago" style="rhombus;whiteSpace=wrap;html=1;" vertex="1" parent="1">
          <mxGeometry x="325" y="220" width="90" height="50" as="geometry" />
        </mxCell>
        <mxCell id="KxWiPKZ9fEYdQQgyyWSj-8" value="nombre" style="ellipse;whiteSpace=wrap;html=1;" vertex="1" parent="1">
          <mxGeometry x="130" y="120" width="90" height="40" as="geometry" />
        </mxCell>
        <mxCell id="KxWiPKZ9fEYdQQgyyWSj-9" value="&lt;u&gt;N째 ID&lt;/u&gt;" style="ellipse;whiteSpace=wrap;html=1;" vertex="1" parent="1">
          <mxGeometry x="130" y="160" width="90" height="40" as="geometry" />
        </mxCell>
        <mxCell id="KxWiPKZ9fEYdQQgyyWSj-11" value="paga" style="rhombus;whiteSpace=wrap;html=1;" vertex="1" parent="1">
          <mxGeometry x="343.75" y="380" width="52.5" height="50" as="geometry" />
        </mxCell>
        <mxCell id="KxWiPKZ9fEYdQQgyyWSj-151" style="edgeStyle=orthogonalEdgeStyle;rounded=0;orthogonalLoop=1;jettySize=auto;html=1;entryX=1;entryY=0.5;entryDx=0;entryDy=0;endArrow=ERoneToMany;endFill=0;startArrow=ERoneToMany;startFill=0;" edge="1" parent="1" source="KxWiPKZ9fEYdQQgyyWSj-13" target="G1Kuet7ZNZULBPnMEY2H-6">
          <mxGeometry relative="1" as="geometry">
            <mxPoint x="180.00000000000182" y="505" as="targetPoint" />
          </mxGeometry>
        </mxCell>
        <mxCell id="KxWiPKZ9fEYdQQgyyWSj-152" style="edgeStyle=orthogonalEdgeStyle;rounded=0;orthogonalLoop=1;jettySize=auto;html=1;exitX=0;exitY=0;exitDx=0;exitDy=0;entryX=1;entryY=0.5;entryDx=0;entryDy=0;endArrow=ERoneToMany;endFill=0;startArrow=ERoneToMany;startFill=0;" edge="1" parent="1" source="KxWiPKZ9fEYdQQgyyWSj-13" target="KxWiPKZ9fEYdQQgyyWSj-94">
          <mxGeometry relative="1" as="geometry" />
        </mxCell>
        <mxCell id="KxWiPKZ9fEYdQQgyyWSj-153" style="edgeStyle=orthogonalEdgeStyle;rounded=0;orthogonalLoop=1;jettySize=auto;html=1;entryX=1;entryY=0.5;entryDx=0;entryDy=0;endArrow=ERoneToMany;endFill=0;exitX=0;exitY=1;exitDx=0;exitDy=0;startArrow=ERoneToMany;startFill=0;" edge="1" parent="1" source="KxWiPKZ9fEYdQQgyyWSj-13" target="KxWiPKZ9fEYdQQgyyWSj-92">
          <mxGeometry relative="1" as="geometry" />
        </mxCell>
        <mxCell id="KxWiPKZ9fEYdQQgyyWSj-13" value="cliente" style="rounded=0;whiteSpace=wrap;html=1;" vertex="1" parent="1">
          <mxGeometry x="310" y="490" width="120" height="30" as="geometry" />
        </mxCell>
        <mxCell id="KxWiPKZ9fEYdQQgyyWSj-90" value="" style="edgeStyle=orthogonalEdgeStyle;rounded=0;orthogonalLoop=1;jettySize=auto;html=1;endArrow=ERoneToMany;endFill=0;startArrow=ERmany;startFill=0;" edge="1" parent="1" source="KxWiPKZ9fEYdQQgyyWSj-15" target="KxWiPKZ9fEYdQQgyyWSj-85">
          <mxGeometry relative="1" as="geometry" />
        </mxCell>
        <mxCell id="KxWiPKZ9fEYdQQgyyWSj-15" value="Usuario" style="rounded=0;whiteSpace=wrap;html=1;" vertex="1" parent="1">
          <mxGeometry x="320" y="300" width="100" height="30" as="geometry" />
        </mxCell>
        <mxCell id="KxWiPKZ9fEYdQQgyyWSj-17" style="edgeStyle=orthogonalEdgeStyle;rounded=0;orthogonalLoop=1;jettySize=auto;html=1;exitX=0.5;exitY=1;exitDx=0;exitDy=0;" edge="1" parent="1" source="KxWiPKZ9fEYdQQgyyWSj-15" target="KxWiPKZ9fEYdQQgyyWSj-15">
          <mxGeometry relative="1" as="geometry" />
        </mxCell>
        <mxCell id="KxWiPKZ9fEYdQQgyyWSj-21" value="" style="edgeStyle=orthogonalEdgeStyle;rounded=0;orthogonalLoop=1;jettySize=auto;html=1;endArrow=none;endFill=0;startArrow=ERmandOne;startFill=0;" edge="1" parent="1" source="KxWiPKZ9fEYdQQgyyWSj-19" target="KxWiPKZ9fEYdQQgyyWSj-4">
          <mxGeometry relative="1" as="geometry" />
        </mxCell>
        <mxCell id="KxWiPKZ9fEYdQQgyyWSj-19" value="Cajero" style="rounded=0;whiteSpace=wrap;html=1;" vertex="1" parent="1">
          <mxGeometry x="310" y="150" width="120" height="30" as="geometry" />
        </mxCell>
        <mxCell id="KxWiPKZ9fEYdQQgyyWSj-22" value="informa" style="rhombus;whiteSpace=wrap;html=1;rounded=0;" vertex="1" parent="1">
          <mxGeometry x="340" y="606.25" width="60" height="50" as="geometry" />
        </mxCell>
        <mxCell id="KxWiPKZ9fEYdQQgyyWSj-136" style="edgeStyle=orthogonalEdgeStyle;rounded=0;orthogonalLoop=1;jettySize=auto;html=1;entryX=0.5;entryY=0;entryDx=0;entryDy=0;exitX=0.25;exitY=1;exitDx=0;exitDy=0;endArrow=ERoneToMany;endFill=0;startArrow=ERmandOne;startFill=0;" edge="1" parent="1" source="KxWiPKZ9fEYdQQgyyWSj-24" target="KxWiPKZ9fEYdQQgyyWSj-26">
          <mxGeometry relative="1" as="geometry">
            <Array as="points">
              <mxPoint x="468" y="680" />
              <mxPoint x="435" y="680" />
            </Array>
          </mxGeometry>
        </mxCell>
        <mxCell id="KxWiPKZ9fEYdQQgyyWSj-24" value="mesero" style="whiteSpace=wrap;html=1;rounded=0;" vertex="1" parent="1">
          <mxGeometry x="450" y="613.75" width="70" height="35" as="geometry" />
        </mxCell>
        <mxCell id="KxWiPKZ9fEYdQQgyyWSj-26" value="nombre" style="ellipse;whiteSpace=wrap;html=1;" vertex="1" parent="1">
          <mxGeometry x="390" y="700" width="90" height="40" as="geometry" />
        </mxCell>
        <mxCell id="KxWiPKZ9fEYdQQgyyWSj-27" value="&lt;u&gt;N째 ID&lt;/u&gt;" style="ellipse;whiteSpace=wrap;html=1;" vertex="1" parent="1">
          <mxGeometry x="490" y="700" width="90" height="40" as="geometry" />
        </mxCell>
        <mxCell id="KxWiPKZ9fEYdQQgyyWSj-32" value="Recoje" style="rhombus;whiteSpace=wrap;html=1;rounded=0;" vertex="1" parent="1">
          <mxGeometry x="580" y="600" width="72.5" height="62.5" as="geometry" />
        </mxCell>
        <mxCell id="KxWiPKZ9fEYdQQgyyWSj-52" value="" style="edgeStyle=orthogonalEdgeStyle;rounded=0;orthogonalLoop=1;jettySize=auto;html=1;" edge="1" parent="1" source="KxWiPKZ9fEYdQQgyyWSj-34" target="KxWiPKZ9fEYdQQgyyWSj-51">
          <mxGeometry relative="1" as="geometry" />
        </mxCell>
        <mxCell id="KxWiPKZ9fEYdQQgyyWSj-34" value="orden" style="whiteSpace=wrap;html=1;rounded=0;" vertex="1" parent="1">
          <mxGeometry x="724.88" y="613.75" width="63.75" height="35" as="geometry" />
        </mxCell>
        <mxCell id="KxWiPKZ9fEYdQQgyyWSj-36" value="&lt;u&gt;N째 de orden&lt;/u&gt;" style="ellipse;whiteSpace=wrap;html=1;" vertex="1" parent="1">
          <mxGeometry x="627.18" y="690" width="90" height="40" as="geometry" />
        </mxCell>
        <mxCell id="KxWiPKZ9fEYdQQgyyWSj-41" value="prepara" style="rhombus;whiteSpace=wrap;html=1;rounded=0;" vertex="1" parent="1">
          <mxGeometry x="860.0000000000001" y="603.75" width="58.13" height="55" as="geometry" />
        </mxCell>
        <mxCell id="KxWiPKZ9fEYdQQgyyWSj-43" value="cheff" style="whiteSpace=wrap;html=1;rounded=0;" vertex="1" parent="1">
          <mxGeometry x="980.9" y="600" width="90.92" height="35" as="geometry" />
        </mxCell>
        <mxCell id="KxWiPKZ9fEYdQQgyyWSj-47" value="nombre" style="ellipse;whiteSpace=wrap;html=1;" vertex="1" parent="1">
          <mxGeometry x="980.9" y="700" width="90" height="40" as="geometry" />
        </mxCell>
        <mxCell id="KxWiPKZ9fEYdQQgyyWSj-48" value="&lt;u&gt;N째 ID&lt;/u&gt;" style="ellipse;whiteSpace=wrap;html=1;" vertex="1" parent="1">
          <mxGeometry x="1130" y="690" width="90" height="40" as="geometry" />
        </mxCell>
        <mxCell id="KxWiPKZ9fEYdQQgyyWSj-51" value="tiene" style="rhombus;whiteSpace=wrap;html=1;rounded=0;" vertex="1" parent="1">
          <mxGeometry x="732.18" y="540" width="51.88" height="50" as="geometry" />
        </mxCell>
        <mxCell id="KxWiPKZ9fEYdQQgyyWSj-157" style="edgeStyle=orthogonalEdgeStyle;rounded=0;orthogonalLoop=1;jettySize=auto;html=1;exitX=0;exitY=0.5;exitDx=0;exitDy=0;entryX=1;entryY=0.5;entryDx=0;entryDy=0;startArrow=ERmandOne;startFill=0;endArrow=ERmandOne;endFill=0;" edge="1" parent="1" source="KxWiPKZ9fEYdQQgyyWSj-53" target="G1Kuet7ZNZULBPnMEY2H-3">
          <mxGeometry relative="1" as="geometry" />
        </mxCell>
        <mxCell id="KxWiPKZ9fEYdQQgyyWSj-53" value="manager" style="whiteSpace=wrap;html=1;rounded=0;" vertex="1" parent="1">
          <mxGeometry x="717.18" y="490" width="81.88" height="30" as="geometry" />
        </mxCell>
        <mxCell id="KxWiPKZ9fEYdQQgyyWSj-56" value="tiene" style="rhombus;whiteSpace=wrap;html=1;rounded=0;" vertex="1" parent="1">
          <mxGeometry x="732.19" y="390" width="51.88" height="45" as="geometry" />
        </mxCell>
        <mxCell id="KxWiPKZ9fEYdQQgyyWSj-58" value="restaurante" style="whiteSpace=wrap;html=1;rounded=0;" vertex="1" parent="1">
          <mxGeometry x="709.2099999999999" y="300" width="97.82" height="30" as="geometry" />
        </mxCell>
        <mxCell id="KxWiPKZ9fEYdQQgyyWSj-60" value="nombre" style="ellipse;whiteSpace=wrap;html=1;" vertex="1" parent="1">
          <mxGeometry x="900" y="235" width="90" height="35" as="geometry" />
        </mxCell>
        <mxCell id="KxWiPKZ9fEYdQQgyyWSj-61" value="Agregar" style="ellipse;whiteSpace=wrap;html=1;" vertex="1" parent="1">
          <mxGeometry x="889.98" y="340" width="90" height="40" as="geometry" />
        </mxCell>
        <mxCell id="KxWiPKZ9fEYdQQgyyWSj-75" value="nombre" style="ellipse;whiteSpace=wrap;html=1;" vertex="1" parent="1">
          <mxGeometry x="580" y="487.5" width="90" height="35" as="geometry" />
        </mxCell>
        <mxCell id="KxWiPKZ9fEYdQQgyyWSj-76" value="Agregar" style="ellipse;whiteSpace=wrap;html=1;" vertex="1" parent="1">
          <mxGeometry x="580" y="530" width="90" height="40" as="geometry" />
        </mxCell>
        <mxCell id="KxWiPKZ9fEYdQQgyyWSj-231" value="" style="edgeStyle=orthogonalEdgeStyle;rounded=0;orthogonalLoop=1;jettySize=auto;html=1;entryX=0.5;entryY=1;entryDx=0;entryDy=0;endArrow=ERoneToMany;endFill=0;startArrow=ERmandOne;startFill=0;exitX=0.5;exitY=0;exitDx=0;exitDy=0;" edge="1" parent="1" source="G1Kuet7ZNZULBPnMEY2H-9" target="KxWiPKZ9fEYdQQgyyWSj-85">
          <mxGeometry relative="1" as="geometry">
            <mxPoint x="505" y="380" as="sourcePoint" />
          </mxGeometry>
        </mxCell>
        <mxCell id="KxWiPKZ9fEYdQQgyyWSj-85" value="Detalle del pedido" style="ellipse;whiteSpace=wrap;html=1;" vertex="1" parent="1">
          <mxGeometry x="460" y="295" width="90" height="40" as="geometry" />
        </mxCell>
        <mxCell id="KxWiPKZ9fEYdQQgyyWSj-230" value="" style="edgeStyle=orthogonalEdgeStyle;rounded=0;orthogonalLoop=1;jettySize=auto;html=1;endArrow=ERoneToMany;endFill=0;startArrow=ERmandOne;startFill=0;" edge="1" parent="1" source="KxWiPKZ9fEYdQQgyyWSj-86" target="KxWiPKZ9fEYdQQgyyWSj-15">
          <mxGeometry relative="1" as="geometry" />
        </mxCell>
        <mxCell id="KxWiPKZ9fEYdQQgyyWSj-86" value="&lt;u&gt;N째 de usuario&lt;/u&gt;" style="ellipse;whiteSpace=wrap;html=1;" vertex="1" parent="1">
          <mxGeometry x="160" y="295" width="90" height="40" as="geometry" />
        </mxCell>
        <mxCell id="KxWiPKZ9fEYdQQgyyWSj-92" value="direccion" style="ellipse;whiteSpace=wrap;html=1;" vertex="1" parent="1">
          <mxGeometry x="170" y="540" width="90" height="35" as="geometry" />
        </mxCell>
        <mxCell id="KxWiPKZ9fEYdQQgyyWSj-94" value="nombre" style="ellipse;whiteSpace=wrap;html=1;" vertex="1" parent="1">
          <mxGeometry x="170" y="440" width="90" height="40" as="geometry" />
        </mxCell>
        <mxCell id="KxWiPKZ9fEYdQQgyyWSj-100" value="contiene" style="rhombus;whiteSpace=wrap;html=1;" vertex="1" parent="1">
          <mxGeometry x="727.6299999999999" y="730" width="61" height="60" as="geometry" />
        </mxCell>
        <mxCell id="KxWiPKZ9fEYdQQgyyWSj-132" style="edgeStyle=orthogonalEdgeStyle;rounded=0;orthogonalLoop=1;jettySize=auto;html=1;entryX=0.5;entryY=0;entryDx=0;entryDy=0;startArrow=ERmandOne;startFill=0;endArrow=ERoneToMany;endFill=0;exitX=1;exitY=0.5;exitDx=0;exitDy=0;" edge="1" parent="1" source="G1Kuet7ZNZULBPnMEY2H-1" target="KxWiPKZ9fEYdQQgyyWSj-106">
          <mxGeometry relative="1" as="geometry">
            <mxPoint x="794.0499999999997" y="840" as="sourcePoint" />
          </mxGeometry>
        </mxCell>
        <mxCell id="KxWiPKZ9fEYdQQgyyWSj-105" value="precio" style="ellipse;whiteSpace=wrap;html=1;" vertex="1" parent="1">
          <mxGeometry x="597.4999999999999" y="870" width="93.76" height="40" as="geometry" />
        </mxCell>
        <mxCell id="KxWiPKZ9fEYdQQgyyWSj-106" value="descripcion" style="ellipse;whiteSpace=wrap;html=1;" vertex="1" parent="1">
          <mxGeometry x="816.24" y="870" width="93.76" height="40" as="geometry" />
        </mxCell>
        <mxCell id="KxWiPKZ9fEYdQQgyyWSj-117" value="" style="endArrow=none;html=1;rounded=0;entryX=0.5;entryY=0;entryDx=0;entryDy=0;exitX=0.5;exitY=1;exitDx=0;exitDy=0;" edge="1" parent="1" source="KxWiPKZ9fEYdQQgyyWSj-53" target="KxWiPKZ9fEYdQQgyyWSj-51">
          <mxGeometry width="50" height="50" relative="1" as="geometry">
            <mxPoint x="700" y="490" as="sourcePoint" />
            <mxPoint x="747" y="535" as="targetPoint" />
          </mxGeometry>
        </mxCell>
        <mxCell id="KxWiPKZ9fEYdQQgyyWSj-128" value="" style="endArrow=ERmandOne;html=1;rounded=0;exitX=0.5;exitY=0;exitDx=0;exitDy=0;entryX=0.25;entryY=1;entryDx=0;entryDy=0;endFill=0;startArrow=ERmandOne;startFill=0;" edge="1" parent="1" source="KxWiPKZ9fEYdQQgyyWSj-36" target="KxWiPKZ9fEYdQQgyyWSj-34">
          <mxGeometry width="50" height="50" relative="1" as="geometry">
            <mxPoint x="710" y="690" as="sourcePoint" />
            <mxPoint x="760" y="640" as="targetPoint" />
            <Array as="points">
              <mxPoint x="672" y="670" />
              <mxPoint x="741" y="670" />
            </Array>
          </mxGeometry>
        </mxCell>
        <mxCell id="KxWiPKZ9fEYdQQgyyWSj-129" value="" style="endArrow=ERmandOne;html=1;rounded=0;entryX=0.75;entryY=1;entryDx=0;entryDy=0;startArrow=ERoneToMany;startFill=0;endFill=0;exitX=0.5;exitY=0;exitDx=0;exitDy=0;" edge="1" parent="1" target="KxWiPKZ9fEYdQQgyyWSj-34" source="G1Kuet7ZNZULBPnMEY2H-8">
          <mxGeometry width="50" height="50" relative="1" as="geometry">
            <mxPoint x="840" y="700" as="sourcePoint" />
            <mxPoint x="772.6925000000001" y="658.75" as="targetPoint" />
            <Array as="points">
              <mxPoint x="840" y="670" />
              <mxPoint x="773" y="670" />
            </Array>
          </mxGeometry>
        </mxCell>
        <mxCell id="KxWiPKZ9fEYdQQgyyWSj-130" value="" style="endArrow=none;startArrow=ERoneToMany;html=1;rounded=0;entryX=0.5;entryY=1;entryDx=0;entryDy=0;exitX=0.5;exitY=0;exitDx=0;exitDy=0;startFill=0;endFill=0;" edge="1" parent="1" source="G1Kuet7ZNZULBPnMEY2H-1" target="KxWiPKZ9fEYdQQgyyWSj-100">
          <mxGeometry width="50" height="50" relative="1" as="geometry">
            <mxPoint x="758.115" y="830" as="sourcePoint" />
            <mxPoint x="760" y="800" as="targetPoint" />
          </mxGeometry>
        </mxCell>
        <mxCell id="KxWiPKZ9fEYdQQgyyWSj-131" value="" style="endArrow=ERoneToMany;startArrow=none;html=1;rounded=0;entryX=0.5;entryY=1;entryDx=0;entryDy=0;exitX=0.5;exitY=0;exitDx=0;exitDy=0;endFill=0;startFill=0;" edge="1" parent="1" source="KxWiPKZ9fEYdQQgyyWSj-100">
          <mxGeometry width="50" height="50" relative="1" as="geometry">
            <mxPoint x="758.1299999999999" y="760" as="sourcePoint" />
            <mxPoint x="756.7550000000001" y="648.75" as="targetPoint" />
          </mxGeometry>
        </mxCell>
        <mxCell id="KxWiPKZ9fEYdQQgyyWSj-140" value="" style="endArrow=none;startArrow=ERoneToMany;html=1;rounded=0;exitX=0.5;exitY=0;exitDx=0;exitDy=0;entryX=0.5;entryY=1;entryDx=0;entryDy=0;startFill=0;endFill=0;" edge="1" parent="1" source="KxWiPKZ9fEYdQQgyyWSj-13" target="KxWiPKZ9fEYdQQgyyWSj-11">
          <mxGeometry width="50" height="50" relative="1" as="geometry">
            <mxPoint x="660" y="420" as="sourcePoint" />
            <mxPoint x="710" y="370" as="targetPoint" />
          </mxGeometry>
        </mxCell>
        <mxCell id="KxWiPKZ9fEYdQQgyyWSj-141" value="" style="endArrow=ERoneToMany;startArrow=none;html=1;rounded=0;exitX=0.5;exitY=0;exitDx=0;exitDy=0;entryX=0.5;entryY=1;entryDx=0;entryDy=0;startFill=0;endFill=0;" edge="1" parent="1" source="KxWiPKZ9fEYdQQgyyWSj-11" target="KxWiPKZ9fEYdQQgyyWSj-15">
          <mxGeometry width="50" height="50" relative="1" as="geometry">
            <mxPoint x="369.57" y="385" as="sourcePoint" />
            <mxPoint x="369.57" y="330" as="targetPoint" />
          </mxGeometry>
        </mxCell>
        <mxCell id="KxWiPKZ9fEYdQQgyyWSj-148" value="" style="endArrow=ERoneToMany;startArrow=ERoneToMany;html=1;rounded=0;entryX=0.5;entryY=1;entryDx=0;entryDy=0;exitX=0.5;exitY=0;exitDx=0;exitDy=0;startFill=0;endFill=0;" edge="1" parent="1" source="KxWiPKZ9fEYdQQgyyWSj-53" target="KxWiPKZ9fEYdQQgyyWSj-56">
          <mxGeometry width="50" height="50" relative="1" as="geometry">
            <mxPoint x="910" y="471" as="sourcePoint" />
            <mxPoint x="910" y="354" as="targetPoint" />
          </mxGeometry>
        </mxCell>
        <mxCell id="KxWiPKZ9fEYdQQgyyWSj-149" value="" style="endArrow=ERoneToMany;startArrow=ERoneToMany;html=1;rounded=0;entryX=0.5;entryY=1;entryDx=0;entryDy=0;exitX=0.5;exitY=0;exitDx=0;exitDy=0;startFill=0;endFill=0;" edge="1" parent="1" source="KxWiPKZ9fEYdQQgyyWSj-56" target="KxWiPKZ9fEYdQQgyyWSj-58">
          <mxGeometry width="50" height="50" relative="1" as="geometry">
            <mxPoint x="880" y="435" as="sourcePoint" />
            <mxPoint x="880" y="318" as="targetPoint" />
          </mxGeometry>
        </mxCell>
        <mxCell id="KxWiPKZ9fEYdQQgyyWSj-160" value="fecha informe" style="ellipse;whiteSpace=wrap;html=1;rounded=0;" vertex="1" parent="1">
          <mxGeometry x="1021.37" y="510" width="87.26" height="40" as="geometry" />
        </mxCell>
        <mxCell id="KxWiPKZ9fEYdQQgyyWSj-163" value="Nivel del informe" style="ellipse;whiteSpace=wrap;html=1;" vertex="1" parent="1">
          <mxGeometry x="1019.9999999999999" y="460" width="90" height="40" as="geometry" />
        </mxCell>
        <mxCell id="KxWiPKZ9fEYdQQgyyWSj-189" value="" style="edgeStyle=entityRelationEdgeStyle;fontSize=12;html=1;endArrow=ERoneToMany;rounded=0;exitX=1;exitY=0.5;exitDx=0;exitDy=0;entryX=0;entryY=0.5;entryDx=0;entryDy=0;startArrow=none;startFill=0;" edge="1" parent="1" source="KxWiPKZ9fEYdQQgyyWSj-22" target="KxWiPKZ9fEYdQQgyyWSj-24">
          <mxGeometry width="100" height="100" relative="1" as="geometry">
            <mxPoint x="490" y="522.5" as="sourcePoint" />
            <mxPoint x="450" y="632.5" as="targetPoint" />
          </mxGeometry>
        </mxCell>
        <mxCell id="KxWiPKZ9fEYdQQgyyWSj-191" value="" style="edgeStyle=entityRelationEdgeStyle;fontSize=12;html=1;endArrow=none;rounded=0;exitX=1;exitY=0.5;exitDx=0;exitDy=0;entryX=0;entryY=0.5;entryDx=0;entryDy=0;startArrow=ERoneToMany;startFill=0;" edge="1" parent="1" source="KxWiPKZ9fEYdQQgyyWSj-24" target="KxWiPKZ9fEYdQQgyyWSj-32">
          <mxGeometry width="100" height="100" relative="1" as="geometry">
            <mxPoint x="400" y="641" as="sourcePoint" />
            <mxPoint x="460" y="641" as="targetPoint" />
            <Array as="points">
              <mxPoint x="460" y="650" />
              <mxPoint x="470" y="630" />
            </Array>
          </mxGeometry>
        </mxCell>
        <mxCell id="KxWiPKZ9fEYdQQgyyWSj-192" value="" style="edgeStyle=entityRelationEdgeStyle;fontSize=12;html=1;endArrow=ERoneToMany;rounded=0;exitX=1;exitY=0.5;exitDx=0;exitDy=0;entryX=0;entryY=0.5;entryDx=0;entryDy=0;startArrow=none;startFill=0;" edge="1" parent="1" source="KxWiPKZ9fEYdQQgyyWSj-32" target="KxWiPKZ9fEYdQQgyyWSj-34">
          <mxGeometry width="100" height="100" relative="1" as="geometry">
            <mxPoint x="530" y="641" as="sourcePoint" />
            <mxPoint x="608" y="641" as="targetPoint" />
            <Array as="points">
              <mxPoint x="470" y="660" />
              <mxPoint x="480" y="640" />
            </Array>
          </mxGeometry>
        </mxCell>
        <mxCell id="KxWiPKZ9fEYdQQgyyWSj-195" value="" style="edgeStyle=entityRelationEdgeStyle;fontSize=12;html=1;endArrow=ERoneToMany;rounded=0;exitX=1;exitY=0.5;exitDx=0;exitDy=0;entryX=0;entryY=0.5;entryDx=0;entryDy=0;startArrow=ERoneToMany;startFill=0;" edge="1" parent="1" source="KxWiPKZ9fEYdQQgyyWSj-53" target="5iU85YDDsmXhogGp80rn-1">
          <mxGeometry width="100" height="100" relative="1" as="geometry">
            <mxPoint x="930" y="641" as="sourcePoint" />
            <mxPoint x="890" y="505" as="targetPoint" />
            <Array as="points">
              <mxPoint x="500" y="690" />
              <mxPoint x="510" y="670" />
            </Array>
          </mxGeometry>
        </mxCell>
        <mxCell id="KxWiPKZ9fEYdQQgyyWSj-196" value="" style="edgeStyle=entityRelationEdgeStyle;fontSize=12;html=1;endArrow=ERoneToMany;startArrow=ERoneToMany;rounded=0;entryX=0;entryY=0.5;entryDx=0;entryDy=0;exitX=1;exitY=0.5;exitDx=0;exitDy=0;startFill=0;endFill=0;" edge="1" parent="1" source="KxWiPKZ9fEYdQQgyyWSj-34" target="KxWiPKZ9fEYdQQgyyWSj-41">
          <mxGeometry width="100" height="100" relative="1" as="geometry">
            <mxPoint x="600" y="610" as="sourcePoint" />
            <mxPoint x="700" y="510" as="targetPoint" />
          </mxGeometry>
        </mxCell>
        <mxCell id="KxWiPKZ9fEYdQQgyyWSj-198" value="" style="edgeStyle=entityRelationEdgeStyle;fontSize=12;html=1;endArrow=ERoneToMany;startArrow=ERoneToMany;rounded=0;entryX=0;entryY=1;entryDx=0;entryDy=0;exitX=1;exitY=0.5;exitDx=0;exitDy=0;startFill=0;endFill=0;" edge="1" parent="1" source="KxWiPKZ9fEYdQQgyyWSj-41" target="KxWiPKZ9fEYdQQgyyWSj-43">
          <mxGeometry width="100" height="100" relative="1" as="geometry">
            <mxPoint x="920.01" y="630.89" as="sourcePoint" />
            <mxPoint x="993.01" y="630.89" as="targetPoint" />
          </mxGeometry>
        </mxCell>
        <mxCell id="KxWiPKZ9fEYdQQgyyWSj-201" value="" style="edgeStyle=entityRelationEdgeStyle;fontSize=12;html=1;endArrow=ERmandOne;startArrow=ERmandOne;rounded=0;entryX=0;entryY=0.5;entryDx=0;entryDy=0;exitX=1;exitY=0.5;exitDx=0;exitDy=0;" edge="1" parent="1" source="KxWiPKZ9fEYdQQgyyWSj-43" target="KxWiPKZ9fEYdQQgyyWSj-48">
          <mxGeometry width="100" height="100" relative="1" as="geometry">
            <mxPoint x="970" y="800" as="sourcePoint" />
            <mxPoint x="1070" y="700" as="targetPoint" />
          </mxGeometry>
        </mxCell>
        <mxCell id="KxWiPKZ9fEYdQQgyyWSj-210" value="" style="edgeStyle=entityRelationEdgeStyle;fontSize=12;html=1;endArrow=ERoneToMany;rounded=0;exitX=1;exitY=0;exitDx=0;exitDy=0;entryX=0;entryY=0.5;entryDx=0;entryDy=0;startArrow=ERmandOne;startFill=0;" edge="1" parent="1" source="KxWiPKZ9fEYdQQgyyWSj-58" target="KxWiPKZ9fEYdQQgyyWSj-60">
          <mxGeometry width="100" height="100" relative="1" as="geometry">
            <mxPoint x="770" y="280" as="sourcePoint" />
            <mxPoint x="841" y="192" as="targetPoint" />
            <Array as="points">
              <mxPoint x="821" y="457" />
              <mxPoint x="1441" y="267" />
              <mxPoint x="831" y="437" />
              <mxPoint x="1161" y="367" />
              <mxPoint x="921" y="257" />
            </Array>
          </mxGeometry>
        </mxCell>
        <mxCell id="KxWiPKZ9fEYdQQgyyWSj-211" value="" style="edgeStyle=entityRelationEdgeStyle;fontSize=12;html=1;endArrow=ERoneToMany;rounded=0;exitX=1;exitY=0.5;exitDx=0;exitDy=0;entryX=0.033;entryY=0.542;entryDx=0;entryDy=0;startArrow=ERmandOne;startFill=0;entryPerimeter=0;" edge="1" parent="1" source="KxWiPKZ9fEYdQQgyyWSj-58" target="G1Kuet7ZNZULBPnMEY2H-4">
          <mxGeometry width="100" height="100" relative="1" as="geometry">
            <mxPoint x="817" y="310" as="sourcePoint" />
            <mxPoint x="890.0000000000073" y="310" as="targetPoint" />
            <Array as="points">
              <mxPoint x="831" y="467" />
              <mxPoint x="1451" y="277" />
              <mxPoint x="841" y="447" />
              <mxPoint x="1171" y="377" />
              <mxPoint x="931" y="267" />
            </Array>
          </mxGeometry>
        </mxCell>
        <mxCell id="KxWiPKZ9fEYdQQgyyWSj-212" value="" style="edgeStyle=entityRelationEdgeStyle;fontSize=12;html=1;endArrow=ERoneToMany;rounded=0;exitX=1;exitY=1;exitDx=0;exitDy=0;entryX=0;entryY=0.5;entryDx=0;entryDy=0;startArrow=ERmandOne;startFill=0;" edge="1" parent="1" source="KxWiPKZ9fEYdQQgyyWSj-58" target="KxWiPKZ9fEYdQQgyyWSj-61">
          <mxGeometry width="100" height="100" relative="1" as="geometry">
            <mxPoint x="827" y="320" as="sourcePoint" />
            <mxPoint x="920" y="265" as="targetPoint" />
            <Array as="points">
              <mxPoint x="841" y="477" />
              <mxPoint x="1461" y="287" />
              <mxPoint x="851" y="457" />
              <mxPoint x="1181" y="387" />
              <mxPoint x="941" y="277" />
            </Array>
          </mxGeometry>
        </mxCell>
        <mxCell id="KxWiPKZ9fEYdQQgyyWSj-213" value="" style="edgeStyle=entityRelationEdgeStyle;fontSize=12;html=1;endArrow=ERoneToMany;rounded=0;exitX=0;exitY=0.5;exitDx=0;exitDy=0;startArrow=ERmandOne;startFill=0;" edge="1" parent="1" source="KxWiPKZ9fEYdQQgyyWSj-58" target="KxWiPKZ9fEYdQQgyyWSj-19">
          <mxGeometry width="100" height="100" relative="1" as="geometry">
            <mxPoint x="624.1800000000001" y="267.5" as="sourcePoint" />
            <mxPoint x="717.1800000000001" y="212.5" as="targetPoint" />
            <Array as="points">
              <mxPoint x="638.1800000000001" y="424.5" />
              <mxPoint x="1258.18" y="234.5" />
              <mxPoint x="648.1800000000001" y="404.5" />
              <mxPoint x="978.1800000000001" y="334.5" />
              <mxPoint x="738.1800000000001" y="224.5" />
            </Array>
          </mxGeometry>
        </mxCell>
        <mxCell id="KxWiPKZ9fEYdQQgyyWSj-214" value="" style="edgeStyle=entityRelationEdgeStyle;fontSize=12;html=1;endArrow=ERoneToMany;rounded=0;exitX=0;exitY=0;exitDx=0;exitDy=0;entryX=1;entryY=0.5;entryDx=0;entryDy=0;startArrow=ERmandOne;startFill=0;" edge="1" parent="1" source="KxWiPKZ9fEYdQQgyyWSj-19" target="KxWiPKZ9fEYdQQgyyWSj-8">
          <mxGeometry width="100" height="100" relative="1" as="geometry">
            <mxPoint x="719" y="325" as="sourcePoint" />
            <mxPoint x="440" y="175" as="targetPoint" />
            <Array as="points">
              <mxPoint x="648.1800000000001" y="434.5" />
              <mxPoint x="1268.18" y="244.5" />
              <mxPoint x="658.1800000000001" y="414.5" />
              <mxPoint x="988.1800000000001" y="344.5" />
              <mxPoint x="748.1800000000001" y="234.5" />
            </Array>
          </mxGeometry>
        </mxCell>
        <mxCell id="KxWiPKZ9fEYdQQgyyWSj-216" value="" style="edgeStyle=entityRelationEdgeStyle;fontSize=12;html=1;endArrow=ERmandOne;rounded=0;entryX=1;entryY=0.5;entryDx=0;entryDy=0;exitX=0;exitY=0.75;exitDx=0;exitDy=0;endFill=0;startArrow=ERmandOne;startFill=0;" edge="1" parent="1" source="KxWiPKZ9fEYdQQgyyWSj-19" target="KxWiPKZ9fEYdQQgyyWSj-9">
          <mxGeometry width="100" height="100" relative="1" as="geometry">
            <mxPoint x="310" y="240" as="sourcePoint" />
            <mxPoint x="260" y="130" as="targetPoint" />
            <Array as="points">
              <mxPoint x="658.1800000000001" y="444.5" />
              <mxPoint x="1278.18" y="254.5" />
              <mxPoint x="668.1800000000001" y="424.5" />
              <mxPoint x="998.1800000000001" y="354.5" />
              <mxPoint x="758.1800000000001" y="244.5" />
            </Array>
          </mxGeometry>
        </mxCell>
        <mxCell id="KxWiPKZ9fEYdQQgyyWSj-233" value="" style="endArrow=ERmandOne;html=1;rounded=0;exitX=0.5;exitY=0;exitDx=0;exitDy=0;entryX=0.75;entryY=1;entryDx=0;entryDy=0;endFill=0;startArrow=ERmandOne;startFill=0;" edge="1" parent="1" source="KxWiPKZ9fEYdQQgyyWSj-27" target="KxWiPKZ9fEYdQQgyyWSj-24">
          <mxGeometry width="50" height="50" relative="1" as="geometry">
            <mxPoint x="727" y="720" as="sourcePoint" />
            <mxPoint x="751" y="659" as="targetPoint" />
            <Array as="points">
              <mxPoint x="535" y="680" />
              <mxPoint x="503" y="680" />
            </Array>
          </mxGeometry>
        </mxCell>
        <mxCell id="KxWiPKZ9fEYdQQgyyWSj-234" value="" style="endArrow=ERmandOne;html=1;rounded=0;exitX=0;exitY=0.5;exitDx=0;exitDy=0;entryX=0.5;entryY=0;entryDx=0;entryDy=0;startArrow=ERoneToMany;startFill=0;endFill=0;" edge="1" parent="1" source="G1Kuet7ZNZULBPnMEY2H-1" target="KxWiPKZ9fEYdQQgyyWSj-105">
          <mxGeometry width="50" height="50" relative="1" as="geometry">
            <mxPoint x="722.1799999999998" y="840" as="sourcePoint" />
            <mxPoint x="643.9100000000001" y="860" as="targetPoint" />
            <Array as="points">
              <mxPoint x="644" y="845" />
            </Array>
          </mxGeometry>
        </mxCell>
        <mxCell id="KTc0T9TTtZmzAEbtfM7_-1" style="edgeStyle=orthogonalEdgeStyle;rounded=0;orthogonalLoop=1;jettySize=auto;html=1;exitX=0;exitY=0.5;exitDx=0;exitDy=0;entryX=1;entryY=0.5;entryDx=0;entryDy=0;startArrow=ERmandOne;startFill=0;endArrow=ERmandOne;endFill=0;" edge="1" parent="1" source="KxWiPKZ9fEYdQQgyyWSj-53" target="KxWiPKZ9fEYdQQgyyWSj-75">
          <mxGeometry relative="1" as="geometry">
            <mxPoint x="727" y="515" as="sourcePoint" />
            <mxPoint x="680" y="470" as="targetPoint" />
          </mxGeometry>
        </mxCell>
        <mxCell id="KTc0T9TTtZmzAEbtfM7_-2" style="edgeStyle=orthogonalEdgeStyle;rounded=0;orthogonalLoop=1;jettySize=auto;html=1;exitX=1;exitY=0.5;exitDx=0;exitDy=0;entryX=0;entryY=0.5;entryDx=0;entryDy=0;startArrow=ERmandOne;startFill=0;endArrow=ERmandOne;endFill=0;" edge="1" parent="1" source="KxWiPKZ9fEYdQQgyyWSj-76" target="KxWiPKZ9fEYdQQgyyWSj-53">
          <mxGeometry relative="1" as="geometry">
            <mxPoint x="737" y="525" as="sourcePoint" />
            <mxPoint x="690" y="480" as="targetPoint" />
          </mxGeometry>
        </mxCell>
        <mxCell id="KTc0T9TTtZmzAEbtfM7_-3" value="" style="endArrow=ERoneToMany;html=1;rounded=0;entryX=0.5;entryY=1;entryDx=0;entryDy=0;exitX=0.5;exitY=0;exitDx=0;exitDy=0;startArrow=none;startFill=0;endFill=0;" edge="1" parent="1" source="KxWiPKZ9fEYdQQgyyWSj-22" target="KxWiPKZ9fEYdQQgyyWSj-13">
          <mxGeometry width="50" height="50" relative="1" as="geometry">
            <mxPoint x="260" y="690" as="sourcePoint" />
            <mxPoint x="310" y="640" as="targetPoint" />
          </mxGeometry>
        </mxCell>
        <mxCell id="KTc0T9TTtZmzAEbtfM7_-4" value="" style="endArrow=ERoneToMany;html=1;rounded=0;entryX=0.5;entryY=1;entryDx=0;entryDy=0;exitX=0.5;exitY=0;exitDx=0;exitDy=0;endFill=0;startArrow=ERoneToMany;startFill=0;" edge="1" parent="1" source="KxWiPKZ9fEYdQQgyyWSj-47" target="KxWiPKZ9fEYdQQgyyWSj-43">
          <mxGeometry width="50" height="50" relative="1" as="geometry">
            <mxPoint x="980" y="680" as="sourcePoint" />
            <mxPoint x="1080" y="740" as="targetPoint" />
            <Array as="points" />
          </mxGeometry>
        </mxCell>
        <mxCell id="5iU85YDDsmXhogGp80rn-1" value="Informa" style="shape=ext;margin=3;double=1;whiteSpace=wrap;html=1;align=center;" vertex="1" parent="1">
          <mxGeometry x="880" y="485" width="100" height="40" as="geometry" />
        </mxCell>
        <mxCell id="5iU85YDDsmXhogGp80rn-2" value="" style="endArrow=ERoneToMany;html=1;rounded=0;entryX=0.5;entryY=1;entryDx=0;entryDy=0;exitX=0;exitY=0;exitDx=0;exitDy=0;startArrow=ERoneToMany;startFill=0;endFill=0;" edge="1" parent="1" source="KxWiPKZ9fEYdQQgyyWSj-43" target="5iU85YDDsmXhogGp80rn-1">
          <mxGeometry width="50" height="50" relative="1" as="geometry">
            <mxPoint x="930" y="600" as="sourcePoint" />
            <mxPoint x="980" y="550" as="targetPoint" />
            <Array as="points">
              <mxPoint x="930" y="600" />
            </Array>
          </mxGeometry>
        </mxCell>
        <mxCell id="5iU85YDDsmXhogGp80rn-4" value="" style="endArrow=ERoneToMany;html=1;rounded=0;exitX=1;exitY=1;exitDx=0;exitDy=0;startArrow=ERmandOne;startFill=0;endFill=0;" edge="1" parent="1" source="5iU85YDDsmXhogGp80rn-1">
          <mxGeometry width="50" height="50" relative="1" as="geometry">
            <mxPoint x="950" y="540" as="sourcePoint" />
            <mxPoint x="1020" y="530" as="targetPoint" />
          </mxGeometry>
        </mxCell>
        <mxCell id="5iU85YDDsmXhogGp80rn-5" value="" style="endArrow=ERoneToMany;html=1;rounded=0;exitX=1;exitY=0;exitDx=0;exitDy=0;entryX=0;entryY=0.5;entryDx=0;entryDy=0;startArrow=ERmandOne;startFill=0;endFill=0;" edge="1" parent="1" source="5iU85YDDsmXhogGp80rn-1" target="KxWiPKZ9fEYdQQgyyWSj-163">
          <mxGeometry width="50" height="50" relative="1" as="geometry">
            <mxPoint x="990" y="502.5" as="sourcePoint" />
            <mxPoint x="1030" y="507.5" as="targetPoint" />
          </mxGeometry>
        </mxCell>
        <mxCell id="G1Kuet7ZNZULBPnMEY2H-1" value="Item" style="shape=ext;margin=3;double=1;whiteSpace=wrap;html=1;align=center;" vertex="1" parent="1">
          <mxGeometry x="722.2900000000001" y="830" width="68.92" height="30" as="geometry" />
        </mxCell>
        <mxCell id="G1Kuet7ZNZULBPnMEY2H-3" value="N째 De contacto" style="ellipse;shape=doubleEllipse;margin=3;whiteSpace=wrap;html=1;align=center;" vertex="1" parent="1">
          <mxGeometry x="580" y="440" width="90" height="40" as="geometry" />
        </mxCell>
        <mxCell id="G1Kuet7ZNZULBPnMEY2H-4" value="N째 De contacto" style="ellipse;shape=doubleEllipse;margin=3;whiteSpace=wrap;html=1;align=center;" vertex="1" parent="1">
          <mxGeometry x="890.9" y="280" width="90" height="40" as="geometry" />
        </mxCell>
        <mxCell id="G1Kuet7ZNZULBPnMEY2H-6" value="N째 De contacto" style="ellipse;shape=doubleEllipse;margin=3;whiteSpace=wrap;html=1;align=center;" vertex="1" parent="1">
          <mxGeometry x="90" y="485" width="90" height="40" as="geometry" />
        </mxCell>
        <mxCell id="G1Kuet7ZNZULBPnMEY2H-8" value="N째 items" style="ellipse;whiteSpace=wrap;html=1;align=center;dashed=1;" vertex="1" parent="1">
          <mxGeometry x="795" y="689" width="90" height="40" as="geometry" />
        </mxCell>
        <mxCell id="G1Kuet7ZNZULBPnMEY2H-9" value="precio" style="ellipse;shape=doubleEllipse;margin=3;whiteSpace=wrap;html=1;align=center;" vertex="1" parent="1">
          <mxGeometry x="455" y="380" width="100" height="40" as="geometry" />
        </mxCell>
      </root>
    </mxGraphModel>
  </diagram>
</mxfile>
